<?xml version="1.0" encoding="UTF-8"?>
<svg id="Layer_1" data-name="Layer 1" xmlns="http://www.w3.org/2000/svg" viewBox="0 0 1902.86 103.85">
  <defs>
    <style>
      .cls-1 {
        fill: #fff;
        stroke-width: 0px;
      }
    </style>
  </defs>
  <g>
    <path class="cls-1" d="M2.15,57.97c-1.41,0-2.15-.76-2.15-2.29V2.21C0,.77.74,0,2.15,0h71.84c10.92,0,16.47,5.53,16.47,14.62,0,7.06-4.22,9.69-6.54,10.88,3.56,1.19,8.86,6.55,8.86,15.05s-6.12,17.43-20.19,17.43H2.15ZM39.23,31.37c-1.41,0-2.15-.77-2.15-2.21v-5.53c0-1.44.74-2.21,2.15-2.21h13.49c5.46,0,7.2-2.38,7.2-5.78s-1.74-5.7-7.2-5.7h-20.86v38h19.45c6.21,0,8.86-2.98,8.86-8.42s-2.65-8.16-8.86-8.16h-12.08Z"/>
    <path class="cls-1" d="M123.31,57.97c-16.47,0-24.25-10.03-24.25-23.97V2.21c0-1.44.66-2.21,2.15-2.21h31.7c1.49,0,2.23.77,2.23,2.21v33.24c0,8.84,2.48,12.5,9.77,12.5h32.53c1.41,0,2.15.77,2.15,2.29v5.44c0,1.53-.75,2.29-2.15,2.29h-54.13Z"/>
    <path class="cls-1" d="M262.51,57.97c-1.9,0-3.23-.59-4.3-1.7l-32.03-34.09-25.33,25.76h37.58c1.49,0,2.23.77,2.23,2.29v5.44c0,1.53-.75,2.29-2.23,2.29h-54.71c-.91,0-1.57-.59-1.57-1.45,0-.34.17-.93.66-1.36L234.7,1.62c.99-1.02,2.15-1.62,3.48-1.62h5.46c1.49,0,2.65.6,3.64,1.62l51.15,53.38c.5.51.66,1.19.66,1.62,0,.77-.58,1.36-1.9,1.36h-34.68Z"/>
    <path class="cls-1" d="M322.84,57.97c-15.64,0-27.15-12.16-27.15-28.99S306.54,0,322.84,0h56.36c1.49,0,2.23.77,2.23,2.21v5.44c0,1.53-.74,2.3-2.23,2.3h-37c-7.2,0-9.77,2.81-9.77,13.26v9.27c0,11.56,2.98,15.47,9.77,15.47h37.33c1.41,0,2.15.77,2.15,2.29v5.44c0,1.53-.75,2.29-2.15,2.29h-56.69Z"/>
    <path class="cls-1" d="M390.62,57.97c-1.41,0-2.15-.76-2.15-2.29V2.21c0-1.44.75-2.21,2.15-2.21h28.47c1.49,0,2.23.77,2.23,2.21v53.47c0,1.53-.75,2.29-2.23,2.29h-28.47ZM460.72,57.97c-2.32,0-3.81-.68-5.54-2.29l-28.31-25.25c-1.16-1.02-1.57-2.04-1.57-4.08v-2.47c0-1.96.33-2.63,1.66-3.4l33.11-18.28c2.23-1.27,4.47-2.21,7.12-2.21h16.72c1.16,0,1.74.68,1.74,1.45,0,.59-.33,1.1-.99,1.44l-32.86,18.11,38.4,33.15c.83.68,1.16,1.45,1.16,2.12,0,.94-.74,1.7-2.4,1.7h-28.22Z"/>
    <path class="cls-1" d="M496.96,57.97c-1.41,0-2.15-.76-2.15-2.29V2.21c0-1.44.75-2.21,2.15-2.21h71.84c10.92,0,16.47,5.53,16.47,14.62,0,7.06-4.22,9.69-6.54,10.88,3.56,1.19,8.86,6.55,8.86,15.05s-6.12,17.43-20.19,17.43h-70.43ZM534.04,31.37c-1.41,0-2.15-.77-2.15-2.21v-5.53c0-1.44.75-2.21,2.15-2.21h13.49c5.46,0,7.2-2.38,7.2-5.78s-1.74-5.7-7.2-5.7h-20.86v38h19.45c6.21,0,8.86-2.98,8.86-8.42s-2.65-8.16-8.86-8.16h-12.08Z"/>
    <path class="cls-1" d="M621.27,57.97c-16.14,0-27.23-12.58-27.23-28.99s10.84-28.99,27.23-28.99h40.55c16.47,0,27.31,12.41,27.31,28.99s-11.01,28.99-27.31,28.99h-40.55ZM656.11,23.21c0-10.46-2.57-13.26-9.77-13.26h-11.26c-6.54,0-9.1,2.98-9.1,13.26v9.27c0,11.48,2.81,15.47,9.1,15.47h11.26c6.79,0,9.77-3.91,9.77-15.47v-9.27Z"/>
    <path class="cls-1" d="M754.68,57.97c-1.9,0-3.48-.68-4.8-1.87l-22.26-20.4-27.56,20.57c-1.49,1.11-3.06,1.7-5.3,1.7h-6.04c-1.16,0-1.74-.59-1.74-1.36,0-.51.33-1.1.91-1.62l33.52-25.16-29.05-26.61c-.58-.51-.83-1.11-.83-1.7,0-.85.75-1.53,2.15-1.53h34.51c1.99,0,3.48.68,4.8,1.87l15.39,14.2,19.37-14.37c1.49-1.1,3.06-1.7,5.3-1.7h6.04c1.16,0,1.74.6,1.74,1.36,0,.51-.33,1.1-.91,1.53l-25.24,18.96,35.84,32.9c.58.51.91,1.11.91,1.62,0,.94-.74,1.62-2.15,1.62h-34.6Z"/>
    <path class="cls-1" d="M826.75,57.97c-1.41,0-2.15-.76-2.15-2.29V2.21c0-1.44.75-2.21,2.15-2.21h66.54c16.47,0,27.23,12.41,27.23,28.99s-11.5,28.99-27.23,28.99h-66.54ZM883.7,23.21c0-10.46-2.57-13.26-9.6-13.26h-16.72v38h16.72c6.7,0,9.6-4,9.6-15.47v-9.27Z"/>
    <path class="cls-1" d="M955.03,57.97c-15.64,0-27.15-12.16-27.15-28.99s10.84-28.99,27.15-28.99h57.85c1.49,0,2.23.77,2.23,2.21v5.44c0,1.53-.75,2.3-2.23,2.3h-38.49c-7.2,0-9.77,2.81-9.77,13.26v9.27c0,11.56,2.98,15.47,9.77,15.47h38.73c1.49,0,2.23.77,2.23,2.29v5.44c0,1.53-.75,2.29-2.23,2.29h-58.1ZM972.74,31.37c-1.49,0-2.23-.77-2.23-2.21v-5.53c0-1.44.75-2.21,2.23-2.21h39.56c1.41,0,2.15.51,2.15,1.53v6.89c0,1.02-.75,1.53-2.15,1.53h-39.56Z"/>
    <path class="cls-1" d="M1083.14,56.27c-.99,1.11-2.15,1.7-3.48,1.7h-5.46c-1.49,0-2.65-.59-3.64-1.7l-51.07-53.38c-.58-.51-.75-1.1-.75-1.53,0-.77.58-1.36,1.9-1.36h34.68c1.9,0,3.23.6,4.3,1.7l32.11,34.09,33.35-34.09c1.16-1.1,2.48-1.7,4.3-1.7h4.72c.91,0,1.57.6,1.57,1.45,0,.34-.17.85-.66,1.36l-51.89,53.47Z"/>
    <path class="cls-1" d="M1158.86,57.97c-15.64,0-27.15-12.16-27.15-28.99s10.84-28.99,27.15-28.99h57.85c1.49,0,2.24.77,2.24,2.21v5.44c0,1.53-.75,2.3-2.24,2.3h-38.49c-7.2,0-9.77,2.81-9.77,13.26v9.27c0,11.56,2.98,15.47,9.77,15.47h38.73c1.49,0,2.23.77,2.23,2.29v5.44c0,1.53-.75,2.29-2.23,2.29h-58.1ZM1176.58,31.37c-1.49,0-2.24-.77-2.24-2.21v-5.53c0-1.44.75-2.21,2.24-2.21h39.56c1.41,0,2.15.51,2.15,1.53v6.89c0,1.02-.75,1.53-2.15,1.53h-39.56Z"/>
    <path class="cls-1" d="M1250.31,57.97c-16.47,0-24.25-10.03-24.25-23.97V2.21c0-1.44.66-2.21,2.15-2.21h31.7c1.49,0,2.24.77,2.24,2.21v33.24c0,8.84,2.48,12.5,9.77,12.5h32.53c1.41,0,2.15.77,2.15,2.29v5.44c0,1.53-.75,2.29-2.15,2.29h-54.13Z"/>
    <path class="cls-1" d="M1333.32,57.97c-16.14,0-27.23-12.58-27.23-28.99s10.84-28.99,27.23-28.99h40.55c16.47,0,27.31,12.41,27.31,28.99s-11.01,28.99-27.31,28.99h-40.55ZM1368.16,23.21c0-10.46-2.57-13.26-9.77-13.26h-11.26c-6.54,0-9.1,2.98-9.1,13.26v9.27c0,11.48,2.81,15.47,9.1,15.47h11.26c6.79,0,9.77-3.91,9.77-15.47v-9.27Z"/>
    <path class="cls-1" d="M1446.95,37.49c-1.41,0-2.15-.76-2.15-2.29v-5.44c0-1.53.75-2.3,2.15-2.3h10.59c5.21,0,9.35-2.21,9.35-8.76,0-6.04-4.14-8.76-9.35-8.76h-17.71v45.73c0,1.53-.75,2.29-2.23,2.29h-28.39c-1.41,0-2.15-.76-2.15-2.29V2.21c0-1.44.75-2.21,2.15-2.21h70.76c10.84,0,19.37,6.97,19.37,19.04s-9.35,18.45-21.52,18.45h-30.87Z"/>
    <path class="cls-1" d="M1584.08,57.97c-1.49,0-2.23-.76-2.23-2.29v-21.51l-23.34,21.51c-1.66,1.62-3.48,2.29-5.13,2.29h-4.8c-1.66,0-3.64-.68-5.54-2.29l-26.15-21.51v21.51c0,1.53-.75,2.29-2.23,2.29h-7.7c-1.49,0-2.23-.76-2.23-2.29V2.21c0-1.44.74-2.21,2.23-2.21h7.12c1.82,0,3.64.77,5.3,2.21l38.82,36.04,41.46-36.04c1.74-1.53,3.81-2.21,5.88-2.21h5.96c1.49,0,2.24.77,2.24,2.21v53.47c0,1.53-.75,2.29-2.24,2.29h-27.39Z"/>
    <path class="cls-1" d="M1648.21,57.97c-15.64,0-27.15-12.16-27.15-28.99s10.84-28.99,27.15-28.99h57.85c1.49,0,2.23.77,2.23,2.21v5.44c0,1.53-.74,2.3-2.23,2.3h-38.48c-7.2,0-9.77,2.81-9.77,13.26v9.27c0,11.56,2.98,15.47,9.77,15.47h38.73c1.49,0,2.24.77,2.24,2.29v5.44c0,1.53-.75,2.29-2.24,2.29h-58.1ZM1665.92,31.37c-1.49,0-2.23-.77-2.23-2.21v-5.53c0-1.44.75-2.21,2.23-2.21h39.56c1.41,0,2.15.51,2.15,1.53v6.89c0,1.02-.74,1.53-2.15,1.53h-39.56Z"/>
    <path class="cls-1" d="M1805.79,57.97c-3.31,0-5.3-.34-8.94-1.7l-65.96-25.33v24.74c0,1.53-.75,2.29-2.23,2.29h-10.68c-1.49,0-2.23-.76-2.23-2.29V2.21c0-1.44.74-2.21,2.23-2.21h10.18c3.64,0,5.3.17,8.86,1.62l61.58,24.4V2.21c0-1.44.75-2.21,2.24-2.21h10.68c1.49,0,2.23.77,2.23,2.21v53.47c0,1.53-.75,2.29-2.23,2.29h-5.71Z"/>
    <path class="cls-1" d="M1845.84,57.97c-1.08,0-1.57-.34-1.57-1.11V9.95h-24.17c-1.08,0-1.57-.25-1.57-.94V1.1c0-.77.5-1.1,1.57-1.1h81.19c1.08,0,1.57.34,1.57,1.1v7.91c0,.68-.5.94-1.57.94h-24.25v46.92c0,.77-.5,1.11-1.49,1.11h-29.71Z"/>
  </g>
  <g>
    <path class="cls-1" d="M102.74,103.85c-.53,0-.81-.29-.81-.86v-20.13c0-.54.28-.83.81-.83h10.75c.53,0,.81.29.81.83v20.13c0,.58-.28.86-.81.86h-10.75Z"/>
    <path class="cls-1" d="M126.66,103.85c-.4,0-.59-.13-.59-.42v-17.66h-9.1c-.41,0-.59-.1-.59-.35v-2.98c0-.29.19-.42.59-.42h30.57c.4,0,.59.13.59.42v2.98c0,.26-.19.35-.59.35h-9.13v17.66c0,.29-.19.42-.56.42h-11.19Z"/>
    <path class="cls-1" d="M170.72,103.85c-5.89,0-10.22-4.58-10.22-10.91s4.08-10.91,10.22-10.91h21.22c.56,0,.84.29.84.83v2.05c0,.58-.28.86-.84.86h-13.93c-2.71,0-3.68,1.06-3.68,4.99v3.49c0,4.35,1.12,5.82,3.68,5.82h14.05c.53,0,.81.29.81.86v2.05c0,.58-.28.86-.81.86h-21.34Z"/>
    <path class="cls-1" d="M205.15,103.85c-6.08,0-10.25-4.74-10.25-10.91s4.08-10.91,10.25-10.91h15.27c6.2,0,10.28,4.67,10.28,10.91s-4.14,10.91-10.28,10.91h-15.27ZM218.26,90.77c0-3.94-.97-4.99-3.68-4.99h-4.24c-2.46,0-3.43,1.12-3.43,4.99v3.49c0,4.32,1.06,5.82,3.43,5.82h4.24c2.55,0,3.68-1.47,3.68-5.82v-3.49Z"/>
    <path class="cls-1" d="M267.21,103.85c-1.25,0-1.99-.13-3.37-.64l-24.83-9.54v9.31c0,.58-.28.86-.84.86h-4.02c-.56,0-.84-.29-.84-.86v-20.13c0-.54.28-.83.84-.83h3.83c1.37,0,1.99.06,3.33.61l23.18,9.18v-8.96c0-.54.28-.83.84-.83h4.02c.56,0,.84.29.84.83v20.13c0,.58-.28.86-.84.86h-2.15Z"/>
    <path class="cls-1" d="M273.63,103.85c-.53,0-.81-.29-.81-.86v-2.05c0-.58.28-.86.81-.86h17.48l-14.68-7.07c-3.18-1.54-3.8-3.29-3.8-5.6,0-2.85,2.02-5.38,6.04-5.38h22.93c.56,0,.84.29.84.83v2.05c0,.58-.28.86-.84.86h-16.89l14.64,7.07c3.21,1.54,3.8,3.29,3.8,5.63,0,2.85-2.03,5.38-6.01,5.38h-23.52Z"/>
    <path class="cls-1" d="M316.09,103.85c-7.67,0-10.62-3.9-10.62-10.05v-10.94c0-.54.25-.83.81-.83h11.65c.53,0,.81.29.81.83v10.94c0,3.9,1.56,6.27,5.08,6.27h5.36c3.55,0,5.2-2.37,5.2-6.27v-10.94c0-.54.28-.83.84-.83h3.74c.56,0,.84.29.84.83v10.94c0,5.6-3.37,10.05-10.62,10.05h-13.09Z"/>
    <path class="cls-1" d="M351.61,103.85c-6.2,0-9.13-3.78-9.13-9.02v-11.97c0-.54.25-.83.81-.83h11.93c.56,0,.84.29.84.83v12.51c0,3.33.93,4.7,3.68,4.7h12.25c.53,0,.81.29.81.86v2.05c0,.58-.28.86-.81.86h-20.38Z"/>
    <path class="cls-1" d="M378.93,103.85c-.4,0-.59-.13-.59-.42v-17.66h-9.1c-.41,0-.59-.1-.59-.35v-2.98c0-.29.19-.42.59-.42h30.57c.4,0,.59.13.59.42v2.98c0,.26-.19.35-.59.35h-9.13v17.66c0,.29-.19.42-.56.42h-11.19Z"/>
    <path class="cls-1" d="M425.42,103.85c-.72,0-1.21-.22-1.62-.64l-12.06-12.83-9.53,9.7h14.15c.56,0,.84.29.84.86v2.05c0,.58-.28.86-.84.86h-20.6c-.34,0-.59-.22-.59-.54,0-.13.06-.35.25-.51l19.54-20.16c.37-.38.81-.61,1.31-.61h2.06c.56,0,1,.22,1.37.61l19.26,20.09c.19.19.25.45.25.61,0,.29-.22.51-.72.51h-13.06Z"/>
    <path class="cls-1" d="M474.77,103.85c-1.25,0-1.99-.13-3.37-.64l-24.83-9.54v9.31c0,.58-.28.86-.84.86h-4.02c-.56,0-.84-.29-.84-.86v-20.13c0-.54.28-.83.84-.83h3.83c1.37,0,1.99.06,3.33.61l23.18,9.18v-8.96c0-.54.28-.83.84-.83h4.02c.56,0,.84.29.84.83v20.13c0,.58-.28.86-.84.86h-2.15Z"/>
    <path class="cls-1" d="M489.85,103.85c-.4,0-.59-.13-.59-.42v-17.66h-9.1c-.41,0-.59-.1-.59-.35v-2.98c0-.29.19-.42.59-.42h30.57c.4,0,.59.13.59.42v2.98c0,.26-.19.35-.59.35h-9.13v17.66c0,.29-.19.42-.56.42h-11.19Z"/>
    <path class="cls-1" d="M513.47,103.85c-.53,0-.81-.29-.81-.86v-2.05c0-.58.28-.86.81-.86h17.48l-14.68-7.07c-3.18-1.54-3.8-3.29-3.8-5.6,0-2.85,2.02-5.38,6.04-5.38h22.93c.56,0,.84.29.84.83v2.05c0,.58-.28.86-.84.86h-16.89l14.64,7.07c3.21,1.54,3.8,3.29,3.8,5.63,0,2.85-2.03,5.38-6.01,5.38h-23.52Z"/>
    <path class="cls-1" d="M556.56,94.99c-.56,0-.84-.29-.84-.86v-2.05c0-.58.28-.86.84-.86h7.17c.56,0,.84.29.84.86v2.05c0,.58-.28.86-.84.86h-7.17Z"/>
    <path class="cls-1" d="M592.57,96.14c-.53,0-.81-.29-.81-.86v-2.05c0-.58.28-.86.81-.86h3.99c1.96,0,3.52-.83,3.52-3.3,0-2.27-1.56-3.3-3.52-3.3h-6.67v17.21c0,.58-.28.86-.84.86h-10.69c-.53,0-.81-.29-.81-.86v-20.13c0-.54.28-.83.81-.83h26.64c4.08,0,7.29,2.62,7.29,7.17s-3.52,6.94-8.1,6.94h-11.62Z"/>
    <path class="cls-1" d="M640.65,103.85c-.78,0-1.5-.26-2.06-.86l-9.38-9.89c-.34-.35-.53-.61-.53-1.18v-.99c0-.54.25-.83.81-.83h4.27c1.96,0,2.96-.8,2.96-2.18s-1-2.14-2.96-2.14h-6.95v17.21c0,.58-.28.86-.84.86h-10.69c-.56,0-.84-.29-.84-.86v-20.13c0-.54.28-.83.84-.83h27.23c3.77,0,6.61,2.27,6.61,5.57,0,3.62-2.74,5.66-6.08,6.18l8.6,9.06c.16.13.22.35.22.51,0,.26-.19.51-.56.51h-10.66Z"/>
    <path class="cls-1" d="M661.96,103.85c-6.08,0-10.25-4.74-10.25-10.91s4.08-10.91,10.25-10.91h15.27c6.2,0,10.28,4.67,10.28,10.91s-4.14,10.91-10.28,10.91h-15.27ZM675.07,90.77c0-3.94-.97-4.99-3.68-4.99h-4.24c-2.46,0-3.43,1.12-3.43,4.99v3.49c0,4.32,1.06,5.82,3.43,5.82h4.24c2.55,0,3.68-1.47,3.68-5.82v-3.49Z"/>
    <path class="cls-1" d="M699.94,103.85c-5.89,0-10.22-4.58-10.22-10.91s4.08-10.91,10.22-10.91h21.72c.56,0,.84.29.84.83v2.05c0,.58-.28.86-.84.86h-14.43c-2.71,0-3.68,1.06-3.68,4.99v3.49c0,4.35,1.12,5.82,3.68,5.82h5.52v-9.79c0-.58.28-.86.81-.86h8.91c.56,0,.84.29.84.86v12.7c0,.58-.28.86-.84.86h-22.53Z"/>
    <path class="cls-1" d="M752.96,103.85c-.78,0-1.5-.26-2.06-.86l-9.38-9.89c-.34-.35-.53-.61-.53-1.18v-.99c0-.54.25-.83.81-.83h4.27c1.96,0,2.96-.8,2.96-2.18s-1-2.14-2.96-2.14h-6.95v17.21c0,.58-.28.86-.84.86h-10.69c-.56,0-.84-.29-.84-.86v-20.13c0-.54.28-.83.84-.83h27.23c3.77,0,6.61,2.27,6.61,5.57,0,3.62-2.74,5.66-6.08,6.18l8.6,9.06c.16.13.22.35.22.51,0,.26-.19.51-.56.51h-10.66Z"/>
    <path class="cls-1" d="M794.81,103.85c-.72,0-1.21-.22-1.62-.64l-12.06-12.83-9.53,9.7h14.15c.56,0,.84.29.84.86v2.05c0,.58-.28.86-.84.86h-20.6c-.34,0-.59-.22-.59-.54,0-.13.06-.35.25-.51l19.54-20.16c.37-.38.81-.61,1.31-.61h2.06c.56,0,1,.22,1.37.61l19.26,20.09c.19.19.25.45.25.61,0,.29-.22.51-.72.51h-13.06Z"/>
    <path class="cls-1" d="M840.14,103.85c-.56,0-.84-.29-.84-.86v-8.09l-8.79,8.09c-.62.61-1.31.86-1.93.86h-1.81c-.62,0-1.37-.26-2.09-.86l-9.85-8.09v8.09c0,.58-.28.86-.84.86h-2.9c-.56,0-.84-.29-.84-.86v-20.13c0-.54.28-.83.84-.83h2.68c.69,0,1.37.29,1.99.83l14.61,13.57,15.61-13.57c.65-.58,1.43-.83,2.21-.83h2.24c.56,0,.84.29.84.83v20.13c0,.58-.28.86-.84.86h-10.31Z"/>
    <path class="cls-1" d="M865.87,103.85c-.53,0-.81-.29-.81-.86v-20.13c0-.54.28-.83.81-.83h25.05c6.2,0,10.25,4.67,10.25,10.91s-4.33,10.91-10.25,10.91h-25.05ZM887.31,90.77c0-3.94-.97-4.99-3.61-4.99h-6.29v14.3h6.29c2.52,0,3.61-1.5,3.61-5.82v-3.49Z"/>
    <path class="cls-1" d="M914.16,103.85c-5.89,0-10.22-4.58-10.22-10.91s4.08-10.91,10.22-10.91h21.78c.56,0,.84.29.84.83v2.05c0,.58-.28.86-.84.86h-14.49c-2.71,0-3.68,1.06-3.68,4.99v3.49c0,4.35,1.12,5.82,3.68,5.82h14.58c.56,0,.84.29.84.86v2.05c0,.58-.28.86-.84.86h-21.87ZM920.83,93.84c-.56,0-.84-.29-.84-.83v-2.08c0-.54.28-.83.84-.83h14.89c.53,0,.81.19.81.58v2.59c0,.38-.28.58-.81.58h-14.89Z"/>
    <path class="cls-1" d="M962.39,103.21c-.37.42-.81.64-1.31.64h-2.06c-.56,0-1-.22-1.37-.64l-19.23-20.09c-.22-.19-.28-.42-.28-.58,0-.29.22-.51.72-.51h13.06c.72,0,1.21.22,1.62.64l12.09,12.83,12.56-12.83c.44-.42.93-.64,1.62-.64h1.78c.34,0,.59.22.59.54,0,.13-.06.32-.25.51l-19.54,20.13Z"/>
    <path class="cls-1" d="M990.9,103.85c-5.89,0-10.22-4.58-10.22-10.91s4.08-10.91,10.22-10.91h21.78c.56,0,.84.29.84.83v2.05c0,.58-.28.86-.84.86h-14.49c-2.71,0-3.68,1.06-3.68,4.99v3.49c0,4.35,1.12,5.82,3.68,5.82h14.58c.56,0,.84.29.84.86v2.05c0,.58-.28.86-.84.86h-21.87ZM997.57,93.84c-.56,0-.84-.29-.84-.83v-2.08c0-.54.28-.83.84-.83h14.89c.53,0,.81.19.81.58v2.59c0,.38-.28.58-.81.58h-14.89Z"/>
    <path class="cls-1" d="M1025.33,103.85c-6.2,0-9.13-3.78-9.13-9.02v-11.97c0-.54.25-.83.81-.83h11.93c.56,0,.84.29.84.83v12.51c0,3.33.93,4.7,3.68,4.7h12.25c.53,0,.81.29.81.86v2.05c0,.58-.28.86-.81.86h-20.38Z"/>
    <path class="cls-1" d="M1056.58,103.85c-6.08,0-10.25-4.74-10.25-10.91s4.08-10.91,10.25-10.91h15.27c6.2,0,10.28,4.67,10.28,10.91s-4.14,10.91-10.28,10.91h-15.27ZM1069.7,90.77c0-3.94-.97-4.99-3.68-4.99h-4.24c-2.46,0-3.43,1.12-3.43,4.99v3.49c0,4.32,1.06,5.82,3.43,5.82h4.24c2.56,0,3.68-1.47,3.68-5.82v-3.49Z"/>
    <path class="cls-1" d="M1099.35,96.14c-.53,0-.81-.29-.81-.86v-2.05c0-.58.28-.86.81-.86h3.99c1.96,0,3.52-.83,3.52-3.3,0-2.27-1.56-3.3-3.52-3.3h-6.67v17.21c0,.58-.28.86-.84.86h-10.69c-.53,0-.81-.29-.81-.86v-20.13c0-.54.28-.83.81-.83h26.64c4.08,0,7.29,2.62,7.29,7.17s-3.52,6.94-8.1,6.94h-11.62Z"/>
    <path class="cls-1" d="M1130.92,103.85c-5.89,0-10.22-4.58-10.22-10.91s4.08-10.91,10.22-10.91h21.78c.56,0,.84.29.84.83v2.05c0,.58-.28.86-.84.86h-14.49c-2.71,0-3.68,1.06-3.68,4.99v3.49c0,4.35,1.12,5.82,3.68,5.82h14.58c.56,0,.84.29.84.86v2.05c0,.58-.28.86-.84.86h-21.87ZM1137.58,93.84c-.56,0-.84-.29-.84-.83v-2.08c0-.54.28-.83.84-.83h14.89c.53,0,.81.19.81.58v2.59c0,.38-.28.58-.81.58h-14.89Z"/>
    <path class="cls-1" d="M1182.67,103.85c-.78,0-1.5-.26-2.06-.86l-9.38-9.89c-.34-.35-.53-.61-.53-1.18v-.99c0-.54.25-.83.81-.83h4.27c1.96,0,2.96-.8,2.96-2.18s-1-2.14-2.96-2.14h-6.95v17.21c0,.58-.28.86-.84.86h-10.69c-.56,0-.84-.29-.84-.86v-20.13c0-.54.28-.83.84-.83h27.23c3.77,0,6.61,2.27,6.61,5.57,0,3.62-2.74,5.66-6.08,6.18l8.6,9.06c.16.13.22.35.22.51,0,.26-.19.51-.56.51h-10.66Z"/>
    <path class="cls-1" d="M1196.06,103.85c-.53,0-.81-.29-.81-.86v-2.05c0-.58.28-.86.81-.86h17.48l-14.68-7.07c-3.18-1.54-3.8-3.29-3.8-5.6,0-2.85,2.03-5.38,6.04-5.38h22.93c.56,0,.84.29.84.83v2.05c0,.58-.28.86-.84.86h-16.89l14.64,7.07c3.21,1.54,3.8,3.29,3.8,5.63,0,2.85-2.03,5.38-6.01,5.38h-23.52Z"/>
    <path class="cls-1" d="M1239.15,94.99c-.56,0-.84-.29-.84-.86v-2.05c0-.58.28-.86.84-.86h7.17c.56,0,.84.29.84.86v2.05c0,.58-.28.86-.84.86h-7.17Z"/>
    <path class="cls-1" d="M1260.93,103.85c-.53,0-.81-.29-.81-.86v-2.05c0-.58.28-.86.81-.86h17.48l-14.68-7.07c-3.18-1.54-3.8-3.29-3.8-5.6,0-2.85,2.03-5.38,6.04-5.38h22.93c.56,0,.84.29.84.83v2.05c0,.58-.28.86-.84.86h-16.89l14.64,7.07c3.21,1.54,3.8,3.29,3.8,5.63,0,2.85-2.02,5.38-6.01,5.38h-23.53Z"/>
    <path class="cls-1" d="M1302.71,103.85c-5.89,0-10.22-4.58-10.22-10.91s4.08-10.91,10.22-10.91h21.22c.56,0,.84.29.84.83v2.05c0,.58-.28.86-.84.86h-13.93c-2.71,0-3.68,1.06-3.68,4.99v3.49c0,4.35,1.12,5.82,3.68,5.82h14.05c.53,0,.81.29.81.86v2.05c0,.58-.28.86-.81.86h-21.34Z"/>
    <path class="cls-1" d="M1353.62,103.85c-.78,0-1.5-.26-2.06-.86l-9.38-9.89c-.34-.35-.53-.61-.53-1.18v-.99c0-.54.25-.83.81-.83h4.27c1.96,0,2.96-.8,2.96-2.18s-1-2.14-2.96-2.14h-6.95v17.21c0,.58-.28.86-.84.86h-10.69c-.56,0-.84-.29-.84-.86v-20.13c0-.54.28-.83.84-.83h27.23c3.77,0,6.61,2.27,6.61,5.57,0,3.62-2.74,5.66-6.08,6.18l8.6,9.06c.16.13.22.35.22.51,0,.26-.19.51-.56.51h-10.66Z"/>
    <path class="cls-1" d="M1374.93,103.85c-6.08,0-10.25-4.74-10.25-10.91s4.08-10.91,10.25-10.91h15.27c6.2,0,10.28,4.67,10.28,10.91s-4.14,10.91-10.28,10.91h-15.27ZM1388.05,90.77c0-3.94-.97-4.99-3.68-4.99h-4.24c-2.46,0-3.43,1.12-3.43,4.99v3.49c0,4.32,1.06,5.82,3.43,5.82h4.24c2.56,0,3.68-1.47,3.68-5.82v-3.49Z"/>
    <path class="cls-1" d="M1412.1,103.85c-6.2,0-9.13-3.78-9.13-9.02v-11.97c0-.54.25-.83.81-.83h11.93c.56,0,.84.29.84.83v12.51c0,3.33.93,4.7,3.68,4.7h12.25c.53,0,.81.29.81.86v2.05c0,.58-.28.86-.81.86h-20.38Z"/>
    <path class="cls-1" d="M1443.44,103.85c-6.2,0-9.13-3.78-9.13-9.02v-11.97c0-.54.25-.83.81-.83h11.93c.56,0,.84.29.84.83v12.51c0,3.33.93,4.7,3.68,4.7h12.25c.53,0,.81.29.81.86v2.05c0,.58-.28.86-.81.86h-20.38Z"/>
    <path class="cls-1" d="M1494.54,85.77c-2.74,0-3.68,1.41-3.68,4.7v12.51c0,.58-.28.86-.84.86h-11.93c-.56,0-.81-.29-.81-.86v-11.93c0-5.28,2.93-9.02,9.13-9.02h22.62c.56,0,.81.29.81.83v2.05c0,.58-.25.86-.81.86h-14.49ZM1493.91,93.84c-.56,0-.84-.29-.84-.83v-2.08c0-.54.28-.83.84-.83h14.92c.56,0,.84.19.84.58v2.59c0,.38-.28.58-.84.58h-14.92Z"/>
    <path class="cls-1" d="M1521.67,103.85c-6.08,0-10.25-4.74-10.25-10.91s4.08-10.91,10.25-10.91h15.27c6.2,0,10.28,4.67,10.28,10.91s-4.14,10.91-10.28,10.91h-15.27ZM1534.79,90.77c0-3.94-.97-4.99-3.68-4.99h-4.24c-2.46,0-3.43,1.12-3.43,4.99v3.49c0,4.32,1.06,5.82,3.43,5.82h4.24c2.56,0,3.68-1.47,3.68-5.82v-3.49Z"/>
    <path class="cls-1" d="M1576.17,103.85c-.78,0-1.5-.26-2.06-.86l-9.38-9.89c-.34-.35-.53-.61-.53-1.18v-.99c0-.54.25-.83.81-.83h4.27c1.96,0,2.96-.8,2.96-2.18s-1-2.14-2.96-2.14h-6.95v17.21c0,.58-.28.86-.84.86h-10.69c-.56,0-.84-.29-.84-.86v-20.13c0-.54.28-.83.84-.83h27.23c3.77,0,6.61,2.27,6.61,5.57,0,3.62-2.74,5.66-6.08,6.18l8.6,9.06c.16.13.22.35.22.51,0,.26-.19.51-.56.51h-10.66Z"/>
    <path class="cls-1" d="M1630.06,103.85c-.56,0-.84-.29-.84-.86v-8.09l-8.79,8.09c-.62.61-1.31.86-1.93.86h-1.81c-.62,0-1.37-.26-2.09-.86l-9.85-8.09v8.09c0,.58-.28.86-.84.86h-2.9c-.56,0-.84-.29-.84-.86v-20.13c0-.54.28-.83.84-.83h2.68c.69,0,1.37.29,1.99.83l14.61,13.57,15.61-13.57c.65-.58,1.43-.83,2.21-.83h2.24c.56,0,.84.29.84.83v20.13c0,.58-.28.86-.84.86h-10.31Z"/>
    <path class="cls-1" d="M1654.24,103.85c-6.08,0-10.25-4.74-10.25-10.91s4.08-10.91,10.25-10.91h15.27c6.2,0,10.28,4.67,10.28,10.91s-4.14,10.91-10.28,10.91h-15.27ZM1667.36,90.77c0-3.94-.97-4.99-3.68-4.99h-4.24c-2.46,0-3.43,1.12-3.43,4.99v3.49c0,4.32,1.06,5.82,3.43,5.82h4.24c2.56,0,3.68-1.47,3.68-5.82v-3.49Z"/>
    <path class="cls-1" d="M1708.73,103.85c-.78,0-1.5-.26-2.06-.86l-9.38-9.89c-.34-.35-.53-.61-.53-1.18v-.99c0-.54.25-.83.81-.83h4.27c1.96,0,2.96-.8,2.96-2.18s-1-2.14-2.96-2.14h-6.95v17.21c0,.58-.28.86-.84.86h-10.69c-.56,0-.84-.29-.84-.86v-20.13c0-.54.28-.83.84-.83h27.23c3.77,0,6.61,2.27,6.61,5.57,0,3.62-2.74,5.66-6.08,6.18l8.6,9.06c.16.13.22.35.22.51,0,.26-.19.51-.56.51h-10.66Z"/>
    <path class="cls-1" d="M1730.01,103.85c-5.89,0-10.22-4.58-10.22-10.91s4.08-10.91,10.22-10.91h21.78c.56,0,.84.29.84.83v2.05c0,.58-.28.86-.84.86h-14.49c-2.71,0-3.68,1.06-3.68,4.99v3.49c0,4.35,1.12,5.82,3.68,5.82h14.58c.56,0,.84.29.84.86v2.05c0,.58-.28.86-.84.86h-21.87ZM1736.68,93.84c-.56,0-.84-.29-.84-.83v-2.08c0-.54.28-.83.84-.83h14.89c.53,0,.81.19.81.58v2.59c0,.38-.28.58-.81.58h-14.89Z"/>
  </g>
</svg>