<?xml version="1.0" encoding="UTF-8"?>
<svg id="Layer_1" data-name="Layer 1" xmlns="http://www.w3.org/2000/svg" viewBox="0 0 1916 129.58">
  <defs>
    <style>
      .cls-1 {
        letter-spacing: .02em;
      }

      .cls-2 {
        letter-spacing: -.01em;
      }

      .cls-3 {
        letter-spacing: -.09em;
      }

      .cls-4 {
        letter-spacing: -.05em;
      }

      .cls-5 {
        letter-spacing: -.09em;
      }

      .cls-6 {
        letter-spacing: -.18em;
      }

      .cls-7 {
        letter-spacing: -.05em;
      }

      .cls-8 {
        letter-spacing: -.05em;
      }

      .cls-9 {
        letter-spacing: -.08em;
      }

      .cls-10 {
        letter-spacing: -.15em;
      }

      .cls-11 {
        letter-spacing: -.02em;
      }

      .cls-12 {
        font-size: 85px;
      }

      .cls-12, .cls-13 {
        fill: #fff;
        font-family: SofachromeRg-Regular, Sofachrome;
      }

      .cls-14 {
        letter-spacing: -.08em;
      }

      .cls-15 {
        letter-spacing: 0em;
      }

      .cls-13 {
        font-size: 32px;
      }
    </style>
  </defs>
  <text class="cls-12" transform="translate(0 71.49) scale(.97 1)"><tspan class="cls-2" x="0" y="0">B</tspan><tspan class="cls-1" x="100.98" y="0">L</tspan><tspan class="cls-9" x="189.89" y="0">A</tspan><tspan class="cls-15" x="303.7" y="0">CKB</tspan><tspan class="cls-14" x="610.13" y="0">O</tspan><tspan x="706.86" y="0">X DE</tspan><tspan class="cls-5" x="1049.15" y="0">V</tspan><tspan x="1162.37" y="0">E</tspan><tspan class="cls-8" x="1258.5" y="0">L</tspan><tspan x="1341.46" y="0">OPment</tspan></text>
  <text class="cls-13" transform="translate(103.1 117.36) scale(.97 1)"><tspan x="0" y="0">IT Consu</tspan><tspan class="cls-10" x="247.49" y="0">l</tspan><tspan class="cls-6" x="275.52" y="0">t</tspan><tspan x="302.94" y="0">ants - P</tspan><tspan class="cls-4" x="526.56" y="0">r</tspan><tspan x="565.37" y="0">ogram De</tspan><tspan class="cls-3" x="860.63" y="0">v</tspan><tspan x="903.26" y="0">e</tspan><tspan class="cls-7" x="939.45" y="0">l</tspan><tspan x="970.68" y="0">opers - Sc</tspan><tspan class="cls-4" x="1258.84" y="0">r</tspan><tspan x="1297.65" y="0">o</tspan><tspan class="cls-11" x="1336.69" y="0">l</tspan><tspan x="1368.89" y="0">l for mo</tspan><tspan class="cls-4" x="1623.57" y="0">r</tspan><tspan x="1662.39" y="0">e</tspan></text>
</svg>