<?xml version="1.0" encoding="UTF-8"?>
<svg id="Layer_1" data-name="Layer 1" xmlns="http://www.w3.org/2000/svg" viewBox="0 0 126.18 125.69">
  <defs>
    <style>
      .cls-1 {
        stroke: #fff;
        stroke-miterlimit: 10;
        stroke-width: .5px;
      }

      .cls-2 {
        fill: #fff;
        stroke-width: 0px;
      }
    </style>
  </defs>
  <polygon class="cls-1" points="125.59 29.59 62.95 58.91 .59 29.59 63.23 .28 125.59 29.59"/>
  <polygon class="cls-1" points="63.74 125.28 .59 91.86 .59 29.59 63.74 58.46 63.74 125.28"/>
  <polygon class="cls-1" points="63.45 125.21 125.59 91.73 125.59 29.59 63.63 58.65 63.45 125.21"/>
  <path class="cls-2" d="M41.18,26.97c1.64-1.1,4.53-2.69,7.73-4.19,4.56-2.13,8.14-3.2,11.81-3.53,2.94-.32,5.76-.02,8.03,1.06,2.77,1.32,2.98,3.51.43,5.75l.08.04c3.97-1.23,10.06-1.98,14.24.01,2.41,1.15,3.07,2.57,2.71,4.03-.6,1.97-3.63,4.17-9.21,6.81-3.05,1.44-5.56,2.47-7.2,3.09l-28.61-13.08ZM57.78,30.38l4.09-1.92c4.75-2.23,5.49-4.51,2.71-5.82-3.41-1.6-7.88-.77-12.47,1.38-2.09.98-3.16,1.6-3.76,2.01l9.44,4.35ZM71.53,36.72c.99-.35,2.31-.93,3.89-1.68,4.58-2.16,7.43-4.8,3.34-6.73-3.87-1.82-9.54-.67-14.43,1.63l-3.71,1.75,10.92,5.03Z"/>
  <path class="cls-2" d="M20.32,55.13c1.76.42,4.58,1.42,7.47,2.75,4.19,1.93,6.92,3.95,8.99,6.64,1.74,2.14,2.78,4.68,2.77,7.39,0,3.33-2.15,5.19-5.65,4.79v.1c3.14,2.37,6.87,6.93,6.86,12.04,0,2.96-1.16,4.61-2.86,5.4-2.32.96-6.02,0-11.28-2.79-2.82-1.5-4.96-2.83-6.3-3.74v-32.6ZM24.37,70.73l3.74,1.83c4.43,2.17,7.07,1.03,7.08-2.27,0-4.01-2.92-6.96-7.16-8.94-1.9-.89-2.99-1.25-3.65-1.41v10.78ZM24.37,86.71c.8.57,1.98,1.24,3.45,2.01,4.32,2.26,8.37,2.71,8.38-2.25,0-4.66-3.85-8.51-8.41-10.78l-3.4-1.69v12.71Z"/>
  <path class="cls-2" d="M84.15,63.28c2.14-1.58,4.65-3.27,7.35-4.77,4.81-2.67,8.16-3.16,10.34-1.8,2.19,1.32,3.46,4.21,3.45,9.27,0,5.1-1.24,10.05-3.55,14.39-2.34,4.45-6.26,8.58-11.33,11.85-2.45,1.58-4.52,2.77-6.3,3.67l.04-32.6ZM87.61,90.37c.87-.36,2.14-1.12,3.47-1.96,7.12-4.53,10.88-11.78,10.89-20.31.05-7.47-3.29-10.32-10.32-6.36-1.76.99-3.1,1.95-4.02,2.71l-.03,25.92Z"/>
</svg>